<?xml version="1.0" standalone="no"?>
<!DOCTYPE svg PUBLIC "-//W3C//DTD SVG 20010904//EN"
 "http://www.w3.org/TR/2001/REC-SVG-20010904/DTD/svg10.dtd">
<svg version="1.0" xmlns="http://www.w3.org/2000/svg"
 width="800.000000pt" height="600.000000pt" viewBox="0 0 800.000000 600.000000"
 preserveAspectRatio="xMidYMid meet">
<metadata>
Created by potrace 1.16, written by Peter Selinger 2001-2019
</metadata>
<g transform="translate(0.000000,600.000000) scale(0.100000,-0.100000)"
fill="#000000" stroke="none">
<path d="M4096 5878 c-132 -115 -139 -120 -165 -108 -14 6 -86 45 -159 86 -72
41 -135 74 -140 74 -4 -1 -54 -64 -111 -141 -58 -78 -110 -143 -117 -146 -7
-2 -87 19 -179 47 -92 28 -171 48 -175 43 -4 -4 -39 -78 -79 -163 -40 -85 -75
-158 -79 -161 -4 -4 -81 -1 -172 7 -91 7 -172 13 -181 14 -11 0 -19 -11 -23
-32 -3 -18 -22 -101 -42 -184 l-35 -151 -167 -23 c-92 -12 -175 -24 -184 -26
-16 -5 -18 -20 -18 -142 0 -75 -3 -160 -6 -188 l-7 -52 -161 -57 c-88 -32
-165 -61 -170 -66 -5 -4 5 -86 24 -189 18 -99 31 -182 29 -184 -2 -2 -67 -43
-144 -91 -77 -48 -146 -93 -153 -99 -9 -9 2 -47 57 -183 l68 -171 -128 -128
c-71 -71 -129 -132 -129 -137 0 -4 45 -75 101 -158 l100 -151 -100 -148 c-56
-82 -101 -152 -101 -157 0 -5 58 -68 129 -139 l130 -129 -70 -174 c-38 -95
-69 -174 -67 -176 2 -1 72 -46 156 -99 83 -54 152 -101 152 -104 0 -4 -14 -87
-32 -185 -17 -97 -29 -179 -27 -181 2 -1 78 -30 169 -63 l165 -60 7 -44 c3
-24 7 -110 7 -190 l1 -147 177 -23 c97 -13 181 -28 187 -35 6 -6 29 -89 51
-184 l39 -173 93 7 c51 3 135 9 186 12 l92 7 75 -163 c41 -89 80 -164 86 -167
6 -2 87 19 180 46 135 41 171 48 179 38 6 -7 56 -74 113 -149 l103 -135 162
88 c157 86 162 88 182 71 208 -182 255 -222 260 -222 6 0 117 95 261 222 20
18 23 16 175 -67 85 -47 159 -85 165 -85 8 0 116 137 219 277 8 11 39 5 179
-37 93 -28 174 -49 180 -47 6 3 45 78 86 167 l75 162 93 -6 c50 -3 134 -9 185
-12 l93 -7 42 181 c33 137 47 182 60 186 9 2 92 14 185 27 l167 22 1 131 c1
72 4 157 8 190 l6 59 165 60 c91 33 167 62 169 64 4 2 -35 240 -56 343 -5 25
4 33 149 125 84 53 154 99 156 100 2 2 -28 81 -67 177 l-71 173 130 126 c72
69 130 131 130 138 0 6 -45 78 -99 160 l-99 148 99 149 c54 82 99 154 99 159
0 6 -58 68 -129 139 l-128 128 68 171 c55 136 66 174 57 183 -7 6 -76 51 -153
99 -77 48 -141 89 -143 90 -2 2 11 82 28 179 18 97 30 182 27 189 -2 7 -79 39
-169 71 l-165 59 -7 75 c-3 41 -6 126 -6 188 0 99 -2 113 -17 118 -10 2 -93
14 -185 26 l-166 22 -31 132 c-17 72 -36 155 -43 184 -8 36 -16 52 -27 52 -9
-1 -90 -7 -181 -14 -91 -8 -168 -11 -172 -7 -4 3 -39 76 -78 161 -40 85 -75
159 -79 163 -5 4 -82 -15 -173 -42 -91 -28 -170 -51 -176 -51 -5 0 -59 65
-118 145 -60 80 -112 145 -116 145 -4 0 -68 -33 -140 -74 -206 -115 -167 -116
-310 10 -68 59 -130 113 -138 120 -13 11 -37 -6 -154 -108z m351 -1688 c135
-32 289 -122 356 -206 16 -21 18 -32 11 -53 -16 -44 -48 -39 -110 18 -113 103
-252 159 -419 168 -322 17 -574 -149 -676 -446 -11 -30 -19 -57 -19 -61 0 -6
163 -30 204 -30 8 0 17 14 21 33 23 111 124 234 232 285 53 24 69 27 178 27
109 0 125 -2 177 -27 159 -74 245 -238 218 -415 -20 -130 -74 -208 -265 -384
-196 -182 -254 -297 -255 -506 l0 -83 104 0 103 0 6 98 c6 104 31 191 72 253
13 20 68 76 122 125 178 161 256 245 287 309 34 71 56 146 56 196 0 93 28 132
76 110 22 -9 24 -17 24 -74 0 -82 -31 -202 -72 -280 -35 -65 -146 -184 -315
-335 -130 -116 -146 -152 -153 -335 -4 -122 -7 -140 -24 -153 -15 -11 -58 -14
-183 -14 -203 0 -203 0 -203 118 0 107 18 247 41 311 36 103 80 161 260 341
108 106 185 192 199 218 12 25 24 72 27 111 11 133 -44 241 -152 296 -52 27
-68 30 -149 30 -80 0 -98 -4 -148 -28 -89 -44 -154 -135 -177 -249 -7 -31 -19
-62 -27 -69 -12 -10 -48 -9 -177 6 -89 10 -172 22 -184 26 -28 10 -30 53 -7
142 70 271 278 472 549 532 96 21 295 18 392 -5z m437 -335 c8 -9 23 -41 33
-71 19 -63 12 -87 -29 -92 -31 -4 -43 11 -67 81 -17 49 -18 57 -5 76 18 25 46
27 68 6z m-1979 -40 c42 -8 106 -29 143 -47 78 -38 173 -128 214 -203 40 -75
68 -188 68 -275 0 -138 -37 -228 -157 -392 -124 -168 -134 -209 -98 -387 24
-115 28 -110 -134 -146 -64 -15 -124 -29 -133 -31 -33 -9 -54 29 -78 141 -43
205 -19 304 129 530 45 68 89 140 98 162 41 98 2 238 -85 298 -40 27 -51 30
-125 29 -91 0 -140 -19 -188 -71 -46 -49 -63 -93 -69 -183 -6 -105 -4 -103
-187 -121 -172 -17 -167 -21 -161 126 4 78 11 127 26 169 104 288 422 462 737
401z m2972 -15 c278 -66 453 -266 453 -514 -1 -245 -104 -400 -355 -536 -178
-96 -218 -145 -253 -309 -11 -49 -25 -89 -34 -94 -11 -7 -59 -2 -157 18 -111
22 -144 32 -152 47 -19 36 35 246 85 332 39 67 103 123 256 223 80 53 158 107
173 122 42 38 68 97 74 163 10 109 -43 191 -150 228 -141 50 -250 6 -321 -130
-21 -39 -45 -74 -53 -77 -17 -6 -268 71 -290 89 -21 17 -15 55 21 126 88 174
234 282 441 326 55 11 187 4 262 -14z m-2752 -1557 c113 -56 152 -188 89 -303
-39 -72 -88 -103 -169 -108 -76 -5 -125 10 -172 51 -94 82 -97 221 -9 315 65
69 174 87 261 45z m1172 2 c101 -30 175 -115 189 -217 14 -100 -54 -221 -149
-267 -57 -27 -165 -28 -223 -2 -136 62 -193 205 -135 337 58 130 183 189 318
149z m1281 -11 c207 -103 134 -414 -98 -414 -123 0 -224 99 -224 220 0 166
171 269 322 194z"/>
<path d="M2665 3724 c-198 -50 -339 -161 -395 -310 -23 -63 -47 -190 -38 -200
4 -3 41 -3 82 1 l76 7 0 32 c0 49 28 136 61 188 90 141 299 194 449 112 63
-34 105 -80 139 -154 22 -46 26 -69 26 -145 0 -103 -12 -131 -117 -289 -95
-140 -131 -224 -136 -318 -5 -78 12 -193 30 -204 5 -3 40 2 77 11 l67 16 -14
67 c-30 143 -4 231 120 405 122 173 157 269 143 387 -21 171 -103 292 -244
359 -71 33 -81 35 -190 37 -64 2 -125 1 -136 -2z"/>
<path d="M5605 3717 c-133 -28 -240 -103 -317 -221 -21 -33 -38 -62 -38 -66 0
-3 32 -17 72 -29 l72 -24 16 24 c72 110 137 162 234 186 91 22 180 7 268 -47
143 -85 189 -238 126 -409 -28 -75 -109 -150 -253 -236 -184 -109 -253 -189
-290 -332 -23 -89 -24 -88 56 -105 50 -11 72 -12 74 -4 2 6 13 43 24 81 39
134 93 190 290 301 58 33 128 80 156 106 129 118 177 324 114 493 -42 113
-191 235 -335 274 -65 17 -204 21 -269 8z"/>
<path d="M2952 2150 c-86 -52 -71 -189 23 -220 86 -28 175 33 175 120 0 96
-112 152 -198 100z"/>
<path d="M4135 2137 c-55 -30 -90 -100 -81 -160 8 -52 55 -114 102 -133 77
-32 167 -1 210 72 86 147 -80 306 -231 221z"/>
<path d="M5408 2144 c-84 -45 -73 -175 19 -216 68 -30 133 -5 168 62 20 39 19
69 -5 107 -35 59 -121 81 -182 47z"/>
</g>
</svg>
