<?xml version="1.0" standalone="no"?>
<!DOCTYPE svg PUBLIC "-//W3C//DTD SVG 20010904//EN"
 "http://www.w3.org/TR/2001/REC-SVG-20010904/DTD/svg10.dtd">
<svg version="1.0" xmlns="http://www.w3.org/2000/svg"
 width="24.000000pt" height="24.000000pt" viewBox="0 0 24.000000 24.000000"
 preserveAspectRatio="xMidYMid meet">

<g transform="translate(0.000000,24.000000) scale(0.100000,-0.100000)"
fill="#000000" stroke="none">
<path d="M92 183 c-18 -28 -22 -47 -20 -92 l3 -56 52 -3 53 -3 21 44 c28 58
21 77 -28 77 -36 0 -38 2 -38 32 0 43 -16 44 -43 1z"/>
<path d="M20 90 c0 -47 3 -60 15 -60 12 0 15 13 15 60 0 47 -3 60 -15 60 -12
0 -15 -13 -15 -60z"/>
</g>
</svg>
