<?xml version="1.0" standalone="no"?>
<!DOCTYPE svg PUBLIC "-//W3C//DTD SVG 20010904//EN"
 "http://www.w3.org/TR/2001/REC-SVG-20010904/DTD/svg10.dtd">
<svg version="1.0" xmlns="http://www.w3.org/2000/svg"
 width="800.000000pt" height="600.000000pt" viewBox="0 0 800.000000 600.000000"
 preserveAspectRatio="xMidYMid meet">
<metadata>
Created by potrace 1.16, written by Peter Selinger 2001-2019
</metadata>
<g transform="translate(0.000000,600.000000) scale(0.100000,-0.100000)"
fill="#000000" stroke="none">
<path d="M3969 3874 c-43 -46 -56 -49 -109 -20 l-48 26 -33 -42 c-18 -24 -33
-44 -34 -45 -1 -2 -26 4 -55 13 -61 18 -68 14 -93 -54 l-12 -34 -57 5 -58 5
-10 -36 c-5 -21 -10 -42 -10 -49 0 -17 -33 -33 -67 -33 -43 0 -51 -10 -55 -69
l-3 -54 -50 -17 c-55 -19 -60 -28 -46 -89 l9 -42 -49 -31 c-27 -16 -49 -31
-49 -33 0 -1 9 -24 21 -50 l21 -47 -41 -42 -40 -41 31 -48 30 -47 -30 -47 -31
-48 40 -41 41 -42 -21 -47 c-12 -26 -21 -49 -21 -50 0 -2 22 -17 49 -33 l49
-31 -9 -42 c-14 -61 -9 -70 46 -89 l50 -17 3 -54 c4 -59 12 -69 55 -69 34 0
67 -16 67 -33 0 -7 5 -28 10 -49 l10 -36 58 5 57 5 12 -34 c25 -68 32 -72 93
-54 29 9 54 15 55 13 1 -1 16 -21 34 -45 l33 -43 45 26 c25 14 49 25 54 25 5
0 27 -16 49 -36 l40 -36 40 36 c22 20 44 36 49 36 5 0 29 -11 54 -25 l45 -26
33 43 c18 24 33 44 34 45 1 2 26 -4 55 -13 61 -18 68 -14 93 54 l12 34 57 -5
58 -5 10 36 c5 21 10 42 10 49 0 17 33 33 67 33 43 0 51 10 55 69 l3 54 50 17
c55 19 60 28 46 89 l-9 43 49 30 c27 17 49 32 49 33 0 1 -9 24 -21 50 l-21 47
41 42 40 41 -31 48 -30 47 30 47 31 48 -40 41 -41 42 21 47 c12 26 21 49 21
50 0 1 -22 16 -49 33 l-49 30 9 43 c14 61 9 70 -46 89 l-50 17 -3 54 c-4 59
-12 69 -55 69 -34 0 -67 16 -67 33 0 7 -5 28 -10 49 l-10 36 -58 -5 -57 -5
-12 34 c-25 68 -32 72 -93 54 -29 -9 -54 -15 -55 -13 -1 1 -16 21 -34 45 l-33
43 -45 -26 c-25 -14 -49 -25 -54 -25 -5 0 -26 16 -48 35 -21 19 -40 35 -43 35
-2 0 -15 -12 -29 -26z m127 -396 c134 -90 147 -284 26 -395 l-35 -32 69 -33
c82 -39 180 -128 218 -198 l28 -51 -25 -42 c-91 -153 -241 -239 -417 -240 -67
0 -96 4 -137 22 -60 26 -168 133 -202 198 l-21 43 25 50 c36 71 119 150 201
190 38 19 71 36 73 37 2 1 -11 17 -29 35 -139 139 -79 381 110 439 46 14 67 9
116 -23z m96 -7 c78 -50 121 -129 120 -226 0 -72 -18 -118 -70 -177 l-38 -44
-35 16 -36 15 33 39 c46 53 68 124 62 200 -6 72 -26 116 -76 169 -44 45 -25
49 40 8z m99 -483 c65 -34 160 -129 196 -195 l23 -40 -25 -50 c-14 -28 -54
-77 -88 -110 -102 -99 -213 -144 -351 -142 l-81 0 87 19 c48 10 111 31 140 46
98 53 228 201 228 261 0 43 -91 158 -175 220 -43 32 -22 28 46 -9z"/>
</g>
</svg>
